<svg xmlns="http://www.w3.org/2000/svg" fill="none" viewBox="-0.5 -0.5 24 24" height="24" width="24" id="Currency-Exchange--Streamline-Rounded----Material-Symbols.svg">
  <path fill="#000" d="M11.667708333333335 15.980208333333335C12.30658125 15.980208333333335 12.837689583333333 15.824479166666666 13.2609375 15.513020833333334C13.684185416666667 15.201562500000001 13.895833333333334 14.790293750000002 13.895833333333334 14.279166666666667C13.895833333333334 13.752083333333333 13.696164583333335 13.308854166666666 13.296875 12.949479166666666C12.897585416666667 12.590104166666666 12.16283125 12.186789583333333 11.092708333333333 11.739583333333334C10.134375 11.340293749999999 9.415625 10.90904375 8.936458333333333 10.445833333333335C8.457291666666666 9.982622916666667 8.217708333333333 9.35970625 8.217708333333333 8.577083333333333C8.217708333333333 7.874289583333333 8.457291666666666 7.27533125 8.936458333333333 6.780208333333333C9.415625 6.285085416666667 10.054497916666667 5.9815812500000005 10.853125 5.869791666666667V5.294791666666667C10.853125 5.11908125 10.916997916666668 4.967377083333333 11.044791666666667 4.839583333333334C11.172585416666667 4.711803958333333 11.324289583333332 4.647916666666666 11.5 4.647916666666666H11.523958333333335C11.69966875 4.647916666666666 11.851372916666667 4.711803958333333 11.979166666666668 4.839583333333334C12.106960416666666 4.967377083333333 12.170833333333333 5.11908125 12.170833333333333 5.294791666666667V5.869791666666667C12.681960416666668 5.917708333333334 13.13716875 6.05748125 13.536458333333334 6.2890625C13.935747916666667 6.5206437500000005 14.271164583333334 6.84408125 14.542708333333335 7.259375C14.638541666666667 7.387168750000001 14.654497916666667 7.53091875 14.590625000000001 7.690625000000001C14.526752083333335 7.85033125 14.414914583333335 7.970122916666666 14.255208333333334 8.05C14.095502083333333 8.129877083333334 13.935747916666667 8.145833333333334 13.776041666666668 8.097916666666666C13.616335416666667 8.05 13.480539583333334 7.962168750000001 13.36875 7.834375000000001C13.145122916666667 7.546875 12.88158125 7.331250000000001 12.578125 7.1875C12.274668750000002 7.04375 11.93125 6.971875000000001 11.547916666666667 6.971875000000001C10.925 6.971875000000001 10.433854166666666 7.1156250000000005 10.074479166666666 7.403125C9.715104166666666 7.690625000000001 9.535416666666666 8.081960416666668 9.535416666666666 8.577083333333333C9.535416666666666 9.088210416666668 9.743039583333335 9.495502083333333 10.158333333333333 9.798958333333333C10.573627083333335 10.102414583333335 11.244460416666668 10.445833333333335 12.170833333333333 10.829166666666667C13.272916666666667 11.292377083333335 14.055539583333335 11.779497916666667 14.51875 12.290625C14.981960416666666 12.801752083333334 15.213541666666668 13.464583333333335 15.213541666666668 14.279166666666667C15.213541666666668 14.67845625 15.141666666666667 15.045833333333333 14.997916666666667 15.381250000000001C14.854166666666668 15.716666666666667 14.650520833333333 16.004166666666666 14.386979166666666 16.24375C14.123437500000001 16.483333333333334 13.8 16.678977083333336 13.416666666666668 16.830729166666668C13.033333333333333 16.98248125 12.602083333333335 17.082291666666666 12.122916666666667 17.130208333333336V17.729166666666668C12.122916666666667 17.904877083333336 12.05904375 18.05658125 11.93125 18.184375000000003C11.80345625 18.31216875 11.651752083333335 18.37604166666667 11.476041666666667 18.37604166666667C11.300331250000001 18.37604166666667 11.144602083333332 18.308143750000003 11.008854166666667 18.172395833333333C10.873106250000001 18.036647916666666 10.805208333333335 17.88091875 10.805208333333335 17.705208333333335V17.082291666666666C10.198247916666668 16.90658125 9.6671875 16.647064583333336 9.211979166666667 16.303645833333334C8.756770833333333 15.960227083333335 8.369460416666668 15.509043750000002 8.05 14.950000000000001C7.970122916666666 14.80625 7.962168750000001 14.666477083333334 8.026041666666668 14.530729166666667C8.089914583333332 14.39498125 8.20970625 14.295122916666667 8.385416666666668 14.231250000000001C8.561127083333334 14.167377083333335 8.724810416666667 14.167377083333335 8.8765625 14.231250000000001C9.028314583333334 14.295122916666667 9.144081250000001 14.406960416666667 9.223958333333334 14.566666666666666C9.479497916666666 15.013872916666667 9.818939583333334 15.361268750000002 10.2421875 15.608854166666669C10.665435416666666 15.856439583333335 11.140625 15.980208333333335 11.667708333333335 15.980208333333335ZM11.5 22.041666666666668C9.711127083333334 22.041666666666668 7.986127083333333 21.514583333333334 6.325 20.460416666666667C4.663887291666667 19.40625 3.354166666666667 18.20033125 2.3958333333333335 16.842708333333334V19.40625C2.3958333333333335 19.61387291666667 2.3279497916666667 19.78560625 2.1921875 19.921354166666667C2.056425208333333 20.057102083333334 1.8847206250000001 20.125 1.6770833333333335 20.125C1.4694460416666666 20.125 1.2977414583333335 20.057102083333334 1.1619791666666666 19.921354166666667C1.026216875 19.78560625 0.9583333333333334 19.61387291666667 0.9583333333333334 19.40625V15.09375C0.9583333333333334 14.886127083333335 1.026216875 14.714393750000001 1.1619791666666666 14.578645833333335C1.2977414583333335 14.442897916666666 1.4694460416666666 14.375 1.6770833333333335 14.375H5.989583333333334C6.19720625 14.375 6.368939583333334 14.442897916666666 6.5046875 14.578645833333335C6.640435416666667 14.714393750000001 6.708333333333334 14.886127083333335 6.708333333333334 15.09375C6.708333333333334 15.301372916666667 6.640435416666667 15.47310625 6.5046875 15.608854166666669C6.368939583333334 15.744602083333334 6.19720625 15.8125 5.989583333333334 15.8125H3.426041666666667C4.240625 17.04237708333333 5.402604166666667 18.1484375 6.911979166666668 19.130729166666665C8.421354166666667 20.113020833333334 9.950710416666666 20.604166666666668 11.5 20.604166666666668C13.895833333333334 20.604166666666668 15.960227083333335 19.797585416666667 17.693229166666665 18.184375000000003C19.42623125 16.571164583333335 20.388541666666665 14.590625000000001 20.580208333333335 12.242708333333335C20.596164583333334 12.035085416666668 20.672064583333334 11.859375 20.8078125 11.715625C20.943560416666667 11.571875 21.11529375 11.5 21.322916666666668 11.5C21.514583333333334 11.5 21.682291666666668 11.567897916666666 21.826041666666665 11.703645833333335C21.96979166666667 11.839393750000001 22.033664583333334 12.003125 22.017708333333335 12.194791666666667C21.921875 13.568418750000001 21.58248125 14.854166666666668 20.999479166666667 16.052083333333336C20.416477083333334 17.25 19.653835416666666 18.2921875 18.711458333333333 19.178645833333334C17.769081250000003 20.065104166666668 16.678977083333336 20.763872916666667 15.441145833333335 21.275C14.203314583333334 21.786127083333337 12.889583333333333 22.041666666666668 11.5 22.041666666666668ZM11.5 2.3958333333333335C9.104166666666668 2.3958333333333335 7.039772916666667 3.2024289583333334 5.306770833333333 4.815625000000001C3.5737831250000003 6.428835416666667 2.6114583333333337 8.409375 2.419791666666667 10.757291666666667C2.4038210416666668 10.964914583333332 2.3279497916666667 11.140625 2.1921875 11.284375C2.056425208333333 11.428125000000001 1.8847206250000001 11.5 1.6770833333333335 11.5C1.4854166666666668 11.5 1.3177083333333335 11.432102083333334 1.1739583333333334 11.296354166666667C1.0302083333333334 11.160606249999999 0.9663210416666667 10.996875 0.9822916666666667 10.805208333333335C1.078125 9.43158125 1.417533125 8.145833333333334 2.0005208333333333 6.947916666666667C2.5835085416666668 5.75 3.3461789583333332 4.7078125 4.288541666666666 3.8213541666666666C5.230918750000001 2.9348958333333335 6.321022916666667 2.236112708333333 7.558854166666667 1.725C8.796685416666667 1.2138872916666668 10.110416666666667 0.9583333333333334 11.5 0.9583333333333334C13.288872916666667 0.9583333333333334 15.013872916666667 1.4854166666666668 16.675 2.5395833333333333C18.336127083333334 3.59375 19.645833333333336 4.79966875 20.604166666666668 6.157291666666667V3.59375C20.604166666666668 3.3861127083333336 20.672064583333334 3.2144081250000003 20.8078125 3.0786458333333333C20.943560416666667 2.9428835416666668 21.11529375 2.875 21.322916666666668 2.875C21.530539583333336 2.875 21.70227291666667 2.9428835416666668 21.838020833333335 3.0786458333333333C21.97376875 3.2144081250000003 22.041666666666668 3.3861127083333336 22.041666666666668 3.59375V7.90625C22.041666666666668 8.113872916666667 21.97376875 8.285606249999999 21.838020833333335 8.421354166666667C21.70227291666667 8.557102083333334 21.530539583333336 8.625 21.322916666666668 8.625H17.010416666666668C16.80279375 8.625 16.631060416666667 8.557102083333334 16.4953125 8.421354166666667C16.359564583333334 8.285606249999999 16.291666666666668 8.113872916666667 16.291666666666668 7.90625C16.291666666666668 7.698627083333334 16.359564583333334 7.52689375 16.4953125 7.391145833333334C16.631060416666667 7.255397916666667 16.80279375 7.1875 17.010416666666668 7.1875H19.573958333333334C18.759375 5.957622916666667 17.601372916666666 4.8515625 16.1 3.869270833333333C14.598627083333334 2.886979166666667 13.06529375 2.3958333333333335 11.5 2.3958333333333335Z" stroke-width="1"></path>
</svg>